<svg width="100%" height="100%" viewBox="0 0 24 24" xmlns="http://www.w3.org/2000/svg" xmlns:xlink="http://www.w3.org/1999/xlink">
     <path fill="#000000" d="M 12,6 V 9 L 8.1186441,5 12,1 v 3 a 7.7627119,8 0 0 1 7.762712,8 c 0,1.57 -0.446356,3.03 -1.20322,4.26 L 17.142797,14.8 C 17.579449,13.97 17.822034,13 17.822034,12 A 5.8220339,6 0 0 0 12,6 M 5.4405085,7.74 6.8572034,9.2 C 6.4302542,10.04 6.1779661,11 6.1779661,12 A 5.8220339,6 0 0 0 12,18 V 15 L 15.881356,19 12,23 V 20 A 7.7627119,8 0 0 1 4.2372881,12 c 0,-1.57 0.446356,-3.03 1.2032204,-4.26 z" />
</svg>