<?xml version="1.0" encoding="UTF-8" standalone="no"?>
<svg
   xmlns:dc="http://purl.org/dc/elements/1.1/"
   xmlns:cc="http://creativecommons.org/ns#"
   xmlns:rdf="http://www.w3.org/1999/02/22-rdf-syntax-ns#"
   xmlns:svg="http://www.w3.org/2000/svg"
   xmlns="http://www.w3.org/2000/svg"
   xmlns:sodipodi="http://sodipodi.sourceforge.net/DTD/sodipodi-0.dtd"
   xmlns:inkscape="http://www.inkscape.org/namespaces/inkscape"
   version="1.1"
   id="Layer_1"
   x="0px"
   y="0px"
   viewBox="-121 -121 2162 2162"
   enable-background="new -121 -121 2162 2162"
   xml:space="preserve"
   sodipodi:docname="Triangle-Ruler.svg"
   inkscape:version="0.92.4 (5da689c313, 2019-01-14)"><metadata
   id="metadata508"><rdf:RDF><cc:Work
       rdf:about=""><dc:format>image/svg+xml</dc:format><dc:type
         rdf:resource="http://purl.org/dc/dcmitype/StillImage" /></cc:Work></rdf:RDF></metadata><defs
   id="defs506">
	
	
	
	
	
	
	
	
	
	
	
	
	
	
	
	
	
	
	
	
	
	
	
	
	
	
	
	
	
	
	
	
	
	
	
	
	
	
	
	
	
	
	
	
	
	
	
	
	
	
	
	
	
	
	
	
	
	
	
	
	
	
	
	
	
	
	
	
	
	
	
	
	
	
</defs><sodipodi:namedview
   pagecolor="#ffffff"
   bordercolor="#666666"
   borderopacity="1"
   objecttolerance="10"
   gridtolerance="10"
   guidetolerance="10"
   inkscape:pageopacity="0"
   inkscape:pageshadow="2"
   inkscape:window-width="1680"
   inkscape:window-height="987"
   id="namedview504"
   showgrid="false"
   inkscape:zoom="0.21831637"
   inkscape:cx="862.05735"
   inkscape:cy="1722.0941"
   inkscape:window-x="1672"
   inkscape:window-y="-8"
   inkscape:window-maximized="1"
   inkscape:current-layer="Layer_1" />
<path
   style="fill:#000005;stroke:#000005;stroke-width:0.08348609"
   inkscape:connector-curvature="0"
   id="path355"
   d="m 55.735963,-121.58187 h 3.666412 c 0.247173,0.6865 0.42568,1.37876 0.549277,2.07681 0.151043,23.000595 0.01376,46.006935 0.05491,69.007533 -1.098554,0.08076 -3.309376,0.248063 -4.40793,0.328827 -0.714053,-3.807483 -0.247173,-7.626479 -0.37076,-11.439733 0.08241,-19.308475 -0.164785,-38.622747 0.123587,-57.931257 0.09612,-0.68074 0.247173,-1.36145 0.384491,-2.04218 z" /><path
   style="fill:#000005;stroke:#000005;stroke-width:0.10904907"
   inkscape:connector-curvature="0"
   id="path363"
   d="m 157.09361,-121.57025 h 3.69799 c 0.25926,1.17868 0.46395,2.35732 0.6004,3.54591 0.10918,29.664669 0.0682,59.339298 0.0274,89.013878 -1.02343,-0.01962 -3.05664,-0.04949 -4.08006,-0.06931 -0.66865,-1.376748 -0.68228,-2.852577 -0.70958,-4.298682 0.19104,-28.248291 -0.10916,-56.50654 0.15011,-84.754826 0.0955,-1.14896 0.20469,-2.28801 0.31384,-3.43697 z" /><path
   style="fill:#000005;stroke:#000005;stroke-width:0.15495525"
   inkscape:connector-curvature="0"
   id="path367"
   d="m 867.91847,-125.58606 h 3.64898 c 0.21623,2.3424 0.39193,4.705 0.54058,7.0474 0.13515,80.792001 0.027,161.604301 0.0406,242.3964 -0.98657,-0.061 -2.95973,-0.1615 -3.9463,-0.2221 -0.98657,-2.7059 -0.68925,-5.9166 -0.79737,-8.8647 0.20272,-77.702599 -0.12163,-155.425399 0.16218,-233.1481 0.0675,-2.403 0.21624,-4.8059 0.35138,-7.2089 z" /><path
   style="fill:#000005;stroke:#000005;stroke-width:0.13291848"
   inkscape:connector-curvature="0"
   id="path389"
   d="m 664.54914,-118.80246 c 1.54067,-0.0294 3.08135,-0.0596 4.64906,-0.0596 -0.0675,57.812251 -0.027,115.6244271 -0.0136,173.436676 -0.0406,1.664079 -0.21625,3.328158 -0.50006,4.977374 -1.04063,0.02943 -3.13541,0.08918 -4.17605,0.118905 0.0675,-59.49119123 0,-118.98231 0.0406,-178.473505 z" /><path
   style="fill:#000005;stroke:#000005;stroke-width:0.14277963"
   inkscape:connector-curvature="0"
   id="path391"
   d="m 765.92297,-118.73874 c 1.52716,-0.0688 3.08135,-0.10282 4.63567,-0.10282 -0.0136,48.946995 -0.0675,97.893989 0.027,146.841068 -0.0539,2.485857 -0.12162,4.98895 -0.51355,7.440591 -1.04064,0.05179 -3.10839,0.171418 -4.14902,0.222869 -0.0137,-51.467236 -0.0137,-102.934474 -1.4e-4,-154.401708 z" /><path
   style="fill:#000005;stroke:#000005;stroke-width:0.15495525"
   inkscape:connector-curvature="0"
   id="path399"
   d="m 968.80578,-126.67646 c 1.66231,0.081 3.31111,0.1413 5.00044,0.2221 -0.45949,60.478001 -0.0271,120.9963014 -0.21624,181.474201 -1.0136,-0.02 -3.02729,-0.1009 -4.02738,-0.1413 -1.27039,-6.1185 -0.54059,-12.6408 -0.68925,-18.941 -0.0136,-54.1979 0.12163,-108.4161 -0.0675,-162.614001 z" /><path
   style="fill:#000005;stroke:#000005;stroke-width:0.15495525"
   inkscape:connector-curvature="0"
   id="path405"
   d="m 1070.2337,-118.84156 c 1.5677,0 3.1084,0.04 4.7032,0.081 0.027,80.893001 0.014,161.765901 0,242.6387 -1.0136,-0.061 -3.0409,-0.1817 -4.0545,-0.2423 -1.0947,-6.8656 -0.473,-13.9735 -0.5811,-20.9401 -0.027,-73.845699 0.1081,-147.691399 -0.068,-221.5371 z" /><path
   style="fill:#000004;stroke:#000004;stroke-width:0.09585889"
   inkscape:connector-curvature="0"
   id="path415"
   d="m 258.36139,-118.56714 c 1.21814,0.008 3.65441,0.023 4.88624,0.0381 -0.0684,29.095182 -0.0274,58.19036 -0.0274,87.293171 -0.0684,1.480345 -0.31482,2.960652 -0.56117,4.440959 -1.45082,-0.122055 -2.90163,-0.251781 -4.33874,-0.381507 -0.0274,-30.461063 -0.10951,-60.929721 0.041,-91.390743 z" /><path
   style="fill:#000005;stroke:#000005;stroke-width:0.13209933"
   inkscape:connector-curvature="0"
   id="path425"
   d="m 359.68591,-118.44902 c 1.24933,0.0145 3.74803,0.0441 4.99736,0.0586 -0.25801,41.083759 -0.0407,82.167445 -0.0951,123.2511297 -0.0678,2.7749649 -0.29873,5.5498573 -0.54317,8.3102123 -1.42589,-0.189858 -2.85178,-0.394326 -4.26407,-0.598794 -0.21729,-43.668792 -0.0408,-87.337585 -0.0951,-131.020988 z" /><path
   style="fill:#000004;stroke:#000004;stroke-width:0.10848559"
   inkscape:connector-curvature="0"
   id="path435"
   d="m 461.32846,-118.33695 c 1.2028,-0.01 3.60843,-0.01 4.79772,-0.0196 -0.0271,35.750278 0,71.500555 0,107.240931 -0.0675,3.642326 0.31084,7.2946018 -0.2703,10.92702646 -0.93251,1.0788264 -3.10838,0.75218855 -4.29767,0.11876404 -0.48653,-3.3453911 -0.22975,-6.7105845 -0.24326,-10.0560245 0.0271,-36.076915 -0.0136,-72.14388 0.0136,-108.210897 z" /><path
   style="fill:#000004;stroke:#000004;stroke-width:0.13653834"
   inkscape:connector-curvature="0"
   id="path445"
   d="m 562.82879,-118.58907 c 1.1937,0.0309 3.56755,0.0937 4.76127,0.14055 -0.0814,45.564352 0.0541,91.128703 -0.0678,136.708679 1.38361,5.045327 -6.09061,5.357764 -4.707,0.04719 -0.0949,-45.626854 -0.10853,-91.269333 0.0137,-136.896109 z" /><path
   style="fill:#000005;stroke:#000005;stroke-width:0.15495525"
   inkscape:connector-curvature="0"
   id="path469"
   d="m 1171.9589,-126.63606 c 1.203,0.04 3.6355,0.1009 4.8382,0.1413 -0.095,49.432401 0,98.864801 -0.04,148.317401 -0.081,11.2475 0.3919,22.5354 -0.5676,33.7223 -1.4326,-0.3433 -2.8517,-0.7068 -4.2572,-1.0501 -0.067,-60.3769996 -0.1216,-120.7539 0.027,-181.130901 z" /><path
   style="fill:#000004;stroke:#000004;stroke-width:0.15495525"
   inkscape:connector-curvature="0"
   id="path479"
   d="m 1273.3057,-118.41756 c 1.1758,-0.04 3.5409,-0.1211 4.7167,-0.1615 0.1621,80.731501 0.014,161.442801 0.068,242.1541 -1.6083,0.02 -3.2029,0.02 -4.7706,0.02 -0.041,-80.670899 -0.028,-161.341899 -0.014,-242.0128 z" /><path
   style="opacity:0.73000004;fill:#000049;stroke:#000049;stroke-width:0.0938"
   inkscape:connector-curvature="0"
   id="path497"
   d="m 360.81,1034.9399 c 0.86,0 2.58,0.01 3.45,0.01 -0.01,0.87 -0.01,2.6001 -0.02,3.4701 -1.17,-0.04 -2.34,-0.07 -3.5,-0.08 0.02,-0.8499 0.05,-2.5499 0.07,-3.4 z"
   enable-background="new    " /><path
   style="opacity:0.73000004;fill:#00004a;stroke:#00004a;stroke-width:0.0938"
   inkscape:connector-curvature="0"
   id="path499"
   d="m 372.17,1042.4 c 1.24,-1.3101 2.5,-2.59 3.77,-3.85 0.9,0.7799 1.8,1.58 2.71,2.3899 -1.28,1.3101 -2.58,2.6001 -3.91,3.8601 -0.86,-0.82 -1.71,-1.6199 -2.57,-2.4 z"
   enable-background="new    " />
<path
   style="fill:#000005;stroke:#000005;stroke-width:0.15495525"
   inkscape:connector-curvature="0"
   id="path363-9"
   d="m 1375.2878,-121.68886 h 3.6624 c 0.2569,2.403 0.4595,4.806 0.5947,7.2291 0.1081,60.478001 0.068,120.9761014 0.028,181.474301 -1.0137,-0.04 -3.0274,-0.101 -4.0409,-0.1414 -0.6623,-2.8068 -0.6758,-5.8156 -0.7028,-8.7637 0.1892,-57.59039961 -0.1081,-115.2009 0.1487,-172.791301 0.094,-2.3424 0.2026,-4.6646 0.3108,-7.007 z" /><path
   style="fill:#000005;stroke:#000005;stroke-width:0.15495525"
   inkscape:connector-curvature="0"
   id="path389-9"
   d="m 1882.7244,-118.92236 c 1.5408,-0.04 3.0814,-0.081 4.6492,-0.081 -0.068,78.570801 -0.028,157.141701 -0.014,235.7126 -0.04,2.2616 -0.2163,4.5232 -0.5001,6.7646 -1.0406,0.04 -3.1353,0.1212 -4.176,0.1615 0.068,-80.852599 0,-161.705299 0.04,-242.5579 z" /><path
   style="fill:#000004;stroke:#000004;stroke-width:0.15495525"
   inkscape:connector-curvature="0"
   id="path415-3"
   d="m 1476.567,-118.68006 c 1.2028,0.02 3.6084,0.061 4.8247,0.101 -0.068,76.995801 -0.027,153.991601 -0.027,231.0076 -0.068,3.9174 -0.311,7.8349 -0.5541,11.7523 -1.4326,-0.3231 -2.8651,-0.6664 -4.2842,-1.0097 -0.028,-80.610299 -0.1082,-161.240899 0.041,-241.8512 z" /><path
   style="fill:#000005;stroke:#000005;stroke-width:0.15495525"
   inkscape:connector-curvature="0"
   id="path425-1"
   d="m 1577.8732,-118.57906 c 1.2433,0.02 3.73,0.061 4.9734,0.081 -0.2567,56.802801 -0.041,113.6056014 -0.094,170.408501 -0.068,3.8366 -0.2973,7.6733 -0.5406,11.4898 -1.4191,-0.2626 -2.8382,-0.5453 -4.2436,-0.828 -0.2164,-60.3768996 -0.041,-120.7539 -0.094,-181.151101 z" /><path
   style="fill:#000004;stroke:#000004;stroke-width:0.15495525"
   inkscape:connector-curvature="0"
   id="path435-4"
   d="m 1679.5037,-118.45796 c 1.2029,-0.02 3.6085,-0.02 4.7977,-0.04 -0.027,72.937001 0,145.874101 0,218.7909 -0.067,7.431 0.311,14.8822 -0.2702,22.293 -0.9326,2.2011 -3.1084,1.5347 -4.2977,0.2423 -0.4865,-6.8252 -0.2298,-13.6908 -0.2432,-20.516 0.027,-73.603399 -0.014,-147.186599 0.014,-220.7698 z" /><path
   style="fill:#000004;stroke:#000004;stroke-width:0.15495525"
   inkscape:connector-curvature="0"
   id="path445-5"
   d="m 1781.0129,-118.72046 c 1.1891,0.04 3.5541,0.1212 4.7435,0.1818 -0.081,58.902901 0.054,117.80580139 -0.068,176.728901 1.3784,6.5223 -6.0682,6.9261 -4.6897,0.06 -0.095,-58.98359961 -0.1081,-117.9875 0.014,-176.971201 z" /></svg>